# xmcd
#
# Track frame offsets:
#	150
#	20408
#	31627
#	42214
#	61781
#	77114
#	90629
#	106299
#	127601
#	144794
#	164612
#
# Disc length: 2226 seconds
#
# Revision: 0
# Processed by: cddbd v1.5.2PL0 Copyright (c) Steve Scherf et al.
# Submitted via: dBpowerAMP V4.0
#
DISCID=7708b00b
DTITLE=Rahsaan Patterson - The Ultimate Gift
DYEAR=2008
DGENRE=Holiday
TTITLE0=Holiday
TTITLE1=What Christmas Means to Me
TTITLE2=This Is the Season
TTITLE3=Peace and Joy
TTITLE4=That First Christmas
TTITLE5=Angels (Sing)
TTITLE6=Little Drummer Boy
TTITLE7=Christmas at My House
TTITLE8=Wonderful Christmastime
TTITLE9=The Ultimate Gift
TTITLE10=Angels (Reprise)
EXTD=
EXTT0=
EXTT1=
EXTT2=
EXTT3=
EXTT4=
EXTT5=
EXTT6=
EXTT7=
EXTT8=
EXTT9=
EXTT10=
PLAYORDER=
